<?xml version="1.0" encoding="UTF-8" standalone="no"?>
<!-- Created with Inkscape (http://www.inkscape.org/) -->

<svg
   xmlns:dc="http://purl.org/dc/elements/1.1/"
   xmlns:cc="http://creativecommons.org/ns#"
   xmlns:rdf="http://www.w3.org/1999/02/22-rdf-syntax-ns#"
   xmlns:svg="http://www.w3.org/2000/svg"
   xmlns="http://www.w3.org/2000/svg"
   xmlns:sodipodi="http://sodipodi.sourceforge.net/DTD/sodipodi-0.dtd"
   xmlns:inkscape="http://www.inkscape.org/namespaces/inkscape"
   width="744.09448819"
   height="1052.3622047"
   id="svg2"
   version="1.1"
   inkscape:version="0.48.3.1 r9886"
   sodipodi:docname="logo.svg"
   inkscape:export-filename="/home/marios/Εικόνες/sage-physics-logo/logo.png"
   inkscape:export-xdpi="100"
   inkscape:export-ydpi="100">
  <defs
     id="defs4" />
  <sodipodi:namedview
     id="base"
     pagecolor="#ffffff"
     bordercolor="#666666"
     borderopacity="1.0"
     inkscape:pageopacity="0.0"
     inkscape:pageshadow="2"
     inkscape:zoom="1.4"
     inkscape:cx="480.18789"
     inkscape:cy="654.22779"
     inkscape:document-units="px"
     inkscape:current-layer="layer1-5"
     showgrid="false" />
  <metadata
     id="metadata7">
    <rdf:RDF>
      <cc:Work
         rdf:about="">
        <dc:format>image/svg+xml</dc:format>
        <dc:type
           rdf:resource="http://purl.org/dc/dcmitype/StillImage" />
        <dc:title></dc:title>
      </cc:Work>
    </rdf:RDF>
  </metadata>
  <g
     inkscape:label="Layer 1"
     inkscape:groupmode="layer"
     id="layer1">
    <g
       id="layer1-5"
       inkscape:label="Layer 1"
       transform="translate(-10.864196,176.43855)">
      <rect
         inkscape:export-ydpi="90"
         inkscape:export-xdpi="90"
         style="opacity:0.98999999000000005;fill:#000000;fill-opacity:1;stroke:none"
         id="rect3430"
         width="500"
         height="130"
         x="100.8642"
         y="253.78876"
         rx="11.531984"
         ry="11.531985" />
      <g
         transform="matrix(0.87556827,0,0,0.87556827,-1152.5328,-1683.5043)"
         id="g3432">
        <path
           sodipodi:type="arc"
           style="opacity:0.98999999;fill:#ffffff;fill-opacity:1;stroke:none"
           id="path3434"
           sodipodi:cx="1324.929"
           sodipodi:cy="1792.4095"
           sodipodi:rx="7.3256478"
           sodipodi:ry="7.3256478"
           d="m 1332.2546,1792.4095 c 0,4.0459 -3.2798,7.3257 -7.3256,7.3257 -4.0459,0 -7.3257,-3.2798 -7.3257,-7.3257 0,-4.0458 3.2798,-7.3256 7.3257,-7.3256 4.0458,0 7.3256,3.2798 7.3256,7.3256 z"
           transform="matrix(0.9672595,0,0,0.9672595,235.69886,548.04605)" />
        <path
           transform="matrix(0.9672595,0,0,0.9672595,308.74604,539.35166)"
           d="m 1332.2546,1792.4095 c 0,4.0459 -3.2798,7.3257 -7.3256,7.3257 -4.0459,0 -7.3257,-3.2798 -7.3257,-7.3257 0,-4.0458 3.2798,-7.3256 7.3257,-7.3256 4.0458,0 7.3256,3.2798 7.3256,7.3256 z"
           sodipodi:ry="7.3256478"
           sodipodi:rx="7.3256478"
           sodipodi:cy="1792.4095"
           sodipodi:cx="1324.929"
           id="path3436"
           style="opacity:0.98999999;fill:#ffffff;fill-opacity:1;stroke:none"
           sodipodi:type="arc" />
        <path
           sodipodi:type="arc"
           style="opacity:0.98999999;fill:#ffffff;fill-opacity:1;stroke:none"
           id="path3438"
           sodipodi:cx="1324.929"
           sodipodi:cy="1792.4095"
           sodipodi:rx="7.3256478"
           sodipodi:ry="7.3256478"
           d="m 1332.2546,1792.4095 c 0,4.0459 -3.2798,7.3257 -7.3256,7.3257 -4.0459,0 -7.3257,-3.2798 -7.3257,-7.3257 0,-4.0458 3.2798,-7.3256 7.3257,-7.3256 4.0458,0 7.3256,3.2798 7.3256,7.3256 z"
           transform="matrix(1.2053547,0,0,1.2053547,-25.196551,182.19849)" />
        <path
           sodipodi:type="arc"
           style="opacity:0.98999999;fill:#ffffff;fill-opacity:1;stroke:none"
           id="path3440"
           sodipodi:cx="1324.929"
           sodipodi:cy="1792.4095"
           sodipodi:rx="7.3256478"
           sodipodi:ry="7.3256478"
           d="m 1332.2546,1792.4095 c 0,4.0459 -3.2798,7.3257 -7.3256,7.3257 -4.0459,0 -7.3257,-3.2798 -7.3257,-7.3257 0,-4.0458 3.2798,-7.3256 7.3257,-7.3256 4.0458,0 7.3256,3.2798 7.3256,7.3256 z"
           transform="matrix(0.7953719,0,0,0.7953719,449.34462,925.45441)" />
        <path
           transform="matrix(0.7953719,0,0,0.7953719,499.30379,973.24771)"
           d="m 1332.2546,1792.4095 c 0,4.0459 -3.2798,7.3257 -7.3256,7.3257 -4.0459,0 -7.3257,-3.2798 -7.3257,-7.3257 0,-4.0458 3.2798,-7.3256 7.3257,-7.3256 4.0458,0 7.3256,3.2798 7.3256,7.3256 z"
           sodipodi:ry="7.3256478"
           sodipodi:rx="7.3256478"
           sodipodi:cy="1792.4095"
           sodipodi:cx="1324.929"
           id="path3442"
           style="opacity:0.98999999;fill:#ffffff;fill-opacity:1;stroke:none"
           sodipodi:type="arc" />
        <path
           sodipodi:type="arc"
           style="opacity:0.98999999;fill:#ffffff;fill-opacity:1;stroke:none"
           id="path3444"
           sodipodi:cx="1324.929"
           sodipodi:cy="1792.4095"
           sodipodi:rx="7.3256478"
           sodipodi:ry="7.3256478"
           d="m 1332.2546,1792.4095 c 0,4.0459 -3.2798,7.3257 -7.3256,7.3257 -4.0459,0 -7.3257,-3.2798 -7.3257,-7.3257 0,-4.0458 3.2798,-7.3256 7.3257,-7.3256 4.0458,0 7.3256,3.2798 7.3256,7.3256 z"
           transform="matrix(0.7953719,0,0,0.7953719,556.29908,956.69427)" />
        <path
           transform="matrix(0.7953719,0,0,0.7953719,581.00221,902.90894)"
           d="m 1332.2546,1792.4095 c 0,4.0459 -3.2798,7.3257 -7.3256,7.3257 -4.0459,0 -7.3257,-3.2798 -7.3257,-7.3257 0,-4.0458 3.2798,-7.3256 7.3257,-7.3256 4.0458,0 7.3256,3.2798 7.3256,7.3256 z"
           sodipodi:ry="7.3256478"
           sodipodi:rx="7.3256478"
           sodipodi:cy="1792.4095"
           sodipodi:cx="1324.929"
           id="path3446"
           style="opacity:0.98999999;fill:#ffffff;fill-opacity:1;stroke:none"
           sodipodi:type="arc" />
        <path
           sodipodi:type="arc"
           style="opacity:0.98999999;fill:#ffffff;fill-opacity:1;stroke:none"
           id="path3448"
           sodipodi:cx="1324.929"
           sodipodi:cy="1792.4095"
           sodipodi:rx="7.3256478"
           sodipodi:ry="7.3256478"
           d="m 1332.2546,1792.4095 c 0,4.0459 -3.2798,7.3257 -7.3256,7.3257 -4.0459,0 -7.3257,-3.2798 -7.3257,-7.3257 0,-4.0458 3.2798,-7.3256 7.3257,-7.3256 4.0458,0 7.3256,3.2798 7.3256,7.3256 z"
           transform="matrix(0.6234843,0,0,0.6234843,800.65848,1180.6657)" />
        <path
           transform="matrix(0.6234843,0,0,0.6234843,766.33259,1139.9519)"
           d="m 1332.2546,1792.4095 c 0,4.0459 -3.2798,7.3257 -7.3256,7.3257 -4.0459,0 -7.3257,-3.2798 -7.3257,-7.3257 0,-4.0458 3.2798,-7.3256 7.3257,-7.3256 4.0458,0 7.3256,3.2798 7.3256,7.3256 z"
           sodipodi:ry="7.3256478"
           sodipodi:rx="7.3256478"
           sodipodi:cy="1792.4095"
           sodipodi:cx="1324.929"
           id="path3450"
           style="opacity:0.98999999;fill:#ffffff;fill-opacity:1;stroke:none"
           sodipodi:type="arc" />
        <path
           sodipodi:type="arc"
           style="opacity:0.98999999;fill:#ffffff;fill-opacity:1;stroke:none"
           id="path3454"
           sodipodi:cx="1324.929"
           sodipodi:cy="1792.4095"
           sodipodi:rx="7.3256478"
           sodipodi:ry="7.3256478"
           d="m 1332.2546,1792.4095 c 0,4.0459 -3.2798,7.3257 -7.3256,7.3257 -4.0459,0 -7.3257,-3.2798 -7.3257,-7.3257 0,-4.0458 3.2798,-7.3256 7.3257,-7.3256 4.0458,0 7.3256,3.2798 7.3256,7.3256 z"
           transform="matrix(0.6234843,0,0,0.6234843,664.75027,1230.1938)" />
        <path
           transform="matrix(0.6234843,0,0,0.6234843,701.58781,1267.5497)"
           d="m 1332.2546,1792.4095 c 0,4.0459 -3.2798,7.3257 -7.3256,7.3257 -4.0459,0 -7.3257,-3.2798 -7.3257,-7.3257 0,-4.0458 3.2798,-7.3256 7.3257,-7.3256 4.0458,0 7.3256,3.2798 7.3256,7.3256 z"
           sodipodi:ry="7.3256478"
           sodipodi:rx="7.3256478"
           sodipodi:cy="1792.4095"
           sodipodi:cx="1324.929"
           id="path3456"
           style="opacity:0.98999999;fill:#ffffff;fill-opacity:1;stroke:none"
           sodipodi:type="arc" />
        <path
           transform="matrix(0.7953719,0,0,0.7953719,440.41431,869.81028)"
           d="m 1332.2546,1792.4095 c 0,4.0459 -3.2798,7.3257 -7.3256,7.3257 -4.0459,0 -7.3257,-3.2798 -7.3257,-7.3257 0,-4.0458 3.2798,-7.3256 7.3257,-7.3256 4.0458,0 7.3256,3.2798 7.3256,7.3256 z"
           sodipodi:ry="7.3256478"
           sodipodi:rx="7.3256478"
           sodipodi:cy="1792.4095"
           sodipodi:cx="1324.929"
           id="path3458"
           style="opacity:0.98999999;fill:#ffffff;fill-opacity:1;stroke:none"
           sodipodi:type="arc" />
        <path
           sodipodi:type="arc"
           style="opacity:0.98999999;fill:#ffffff;fill-opacity:1;stroke:none"
           id="path3460"
           sodipodi:cx="1324.929"
           sodipodi:cy="1792.4095"
           sodipodi:rx="7.3256478"
           sodipodi:ry="7.3256478"
           d="m 1332.2546,1792.4095 c 0,4.0459 -3.2798,7.3257 -7.3256,7.3257 -4.0459,0 -7.3257,-3.2798 -7.3257,-7.3257 0,-4.0458 3.2798,-7.3256 7.3257,-7.3256 4.0458,0 7.3256,3.2798 7.3256,7.3256 z"
           transform="matrix(0.7953719,0,0,0.7953719,484.50773,829.39633)" />
        <path
           sodipodi:type="arc"
           style="opacity:0.98999999;fill:#ffffff;fill-opacity:1;stroke:none"
           id="path3462"
           sodipodi:cx="1324.929"
           sodipodi:cy="1792.4095"
           sodipodi:rx="7.3256478"
           sodipodi:ry="7.3256478"
           d="m 1332.2546,1792.4095 c 0,4.0459 -3.2798,7.3257 -7.3256,7.3257 -4.0459,0 -7.3257,-3.2798 -7.3257,-7.3257 0,-4.0458 3.2798,-7.3256 7.3257,-7.3256 4.0458,0 7.3256,3.2798 7.3256,7.3256 z"
           transform="matrix(0.6234843,0,0,0.6234843,699.00639,1196.6154)" />
        <path
           transform="matrix(0.6234843,0,0,0.6234843,749.0301,1256.3969)"
           d="m 1332.2546,1792.4095 c 0,4.0459 -3.2798,7.3257 -7.3256,7.3257 -4.0459,0 -7.3257,-3.2798 -7.3257,-7.3257 0,-4.0458 3.2798,-7.3256 7.3257,-7.3256 4.0458,0 7.3256,3.2798 7.3256,7.3256 z"
           sodipodi:ry="7.3256478"
           sodipodi:rx="7.3256478"
           sodipodi:cy="1792.4095"
           sodipodi:cx="1324.929"
           id="path3464"
           style="opacity:0.98999999;fill:#ffffff;fill-opacity:1;stroke:none"
           sodipodi:type="arc" />
        <path
           style="fill:none;stroke:#ffffff;stroke-width:8;stroke-linecap:butt;stroke-linejoin:miter;stroke-miterlimit:4;stroke-opacity:1;stroke-dasharray:none"
           d="m 1590.0065,2271.6035 -18.6281,72.6731"
           id="path3468"
           inkscape:connector-curvature="0" />
        <path
           style="fill:none;stroke:#ffffff;stroke-width:8;stroke-linecap:butt;stroke-linejoin:miter;stroke-miterlimit:4;stroke-opacity:1;stroke-dasharray:none"
           d="m 1589.0995,2273.5223 -72.5588,8.4545"
           id="path3470"
           inkscape:connector-curvature="0" />
        <path
           style="fill:none;stroke:#ffffff;stroke-width:8;stroke-linecap:butt;stroke-linejoin:miter;stroke-miterlimit:4;stroke-opacity:1;stroke-dasharray:none"
           d="m 1571.3087,2343.4372 -54.6982,-61.8801"
           id="path3472"
           inkscape:connector-curvature="0" />
        <path
           style="fill:none;stroke:#ffffff;stroke-width:6;stroke-linecap:butt;stroke-linejoin:miter;stroke-miterlimit:4;stroke-opacity:1;stroke-dasharray:none"
           d="m 1571.3087,2343.8569 -18.07,55.944"
           id="path3474"
           inkscape:connector-curvature="0" />
        <path
           style="fill:none;stroke:#ffffff;stroke-width:4;stroke-linecap:butt;stroke-linejoin:miter;stroke-miterlimit:4;stroke-opacity:1;stroke-dasharray:none"
           d="m 1516.4012,2281.3172 21.0002,-24.3443"
           id="path3476"
           inkscape:connector-curvature="0" />
        <path
           style="fill:none;stroke:#ffffff;stroke-width:4;stroke-linecap:butt;stroke-linejoin:miter;stroke-miterlimit:4;stroke-opacity:1;stroke-dasharray:none"
           d="m 1493.9359,2295.4681 21.7676,-14.3307"
           id="path3478"
           inkscape:connector-curvature="0" />
        <path
           style="fill:none;stroke:#ffffff;stroke-width:4;stroke-linecap:butt;stroke-linejoin:miter;stroke-miterlimit:4;stroke-opacity:1;stroke-dasharray:none"
           d="m 1503.0057,2350.6326 13.3955,-69.9749"
           id="path3480"
           inkscape:connector-curvature="0" />
        <path
           style="fill:none;stroke:#ffffff;stroke-width:6;stroke-linecap:butt;stroke-linejoin:miter;stroke-miterlimit:4;stroke-opacity:1;stroke-dasharray:none"
           d="m 1552.1922,2398.5417 -49.5353,-46.59"
           id="path3482"
           inkscape:connector-curvature="0" />
        <path
           style="fill:none;stroke:#ffffff;stroke-width:6;stroke-linecap:butt;stroke-linejoin:miter;stroke-miterlimit:4;stroke-opacity:1;stroke-dasharray:none"
           d="m 1610.0997,2381.3328 -58.1168,16.969"
           id="path3484"
           inkscape:connector-curvature="0" />
        <path
           style="fill:none;stroke:#ffffff;stroke-width:6;stroke-linecap:butt;stroke-linejoin:miter;stroke-miterlimit:4;stroke-opacity:1;stroke-dasharray:none"
           d="m 1634.2395,2328.3869 -24.1398,53.1257"
           id="path3486"
           inkscape:connector-curvature="0" />
        <path
           style="fill:none;stroke:#ffffff;stroke-width:6;stroke-linecap:butt;stroke-linejoin:miter;stroke-miterlimit:4;stroke-opacity:1;stroke-dasharray:none"
           d="m 1570.5412,2343.4372 62.8611,-14.6306"
           id="path3488"
           inkscape:connector-curvature="0" />
        <path
           style="fill:none;stroke:#ffffff;stroke-width:6;stroke-linecap:butt;stroke-linejoin:miter;stroke-miterlimit:4;stroke-opacity:1;stroke-dasharray:none"
           d="m 1590.1461,2273.0426 43.1166,55.1644"
           id="path3491"
           inkscape:connector-curvature="0" />
        <path
           style="fill:none;stroke:#ffffff;stroke-width:6;stroke-linecap:butt;stroke-linejoin:miter;stroke-miterlimit:4;stroke-opacity:1;stroke-dasharray:none"
           d="m 1501.7987,2350.6326 66.9774,-7.1954"
           id="path3493"
           inkscape:connector-curvature="0" />
        <path
           style="fill:none;stroke:#ffffff;stroke-width:4;stroke-linecap:butt;stroke-linejoin:miter;stroke-miterlimit:4;stroke-opacity:1;stroke-dasharray:none"
           d="m 1551.4038,2398.062 -24.4188,-13.1316"
           id="path3495"
           inkscape:connector-curvature="0" />
        <path
           style="fill:none;stroke:#ffffff;stroke-width:4;stroke-linecap:butt;stroke-linejoin:miter;stroke-miterlimit:4;stroke-opacity:1;stroke-dasharray:none"
           d="m 1489.38,2347.2747 36.3492,37.296"
           id="path3497"
           inkscape:connector-curvature="0" />
        <path
           style="fill:none;stroke:#ffffff;stroke-width:4;stroke-linecap:butt;stroke-linejoin:miter;stroke-miterlimit:4;stroke-opacity:1;stroke-dasharray:none"
           d="m 1493.2173,2295.9478 -2.721,51.3269"
           id="path3499"
           inkscape:connector-curvature="0" />
        <path
           style="fill:none;stroke:#ffffff;stroke-width:4;stroke-linecap:butt;stroke-linejoin:miter;stroke-miterlimit:4;stroke-opacity:1;stroke-dasharray:none"
           d="m 1537.3805,2254.8743 54.0702,1.8588"
           id="path3501"
           inkscape:connector-curvature="0" />
        <path
           style="fill:none;stroke:#ffffff;stroke-width:4;stroke-linecap:butt;stroke-linejoin:miter;stroke-miterlimit:4;stroke-opacity:1;stroke-dasharray:none"
           d="m 1627.172,2298.5261 -34.2562,-41.9729"
           id="path3503"
           inkscape:connector-curvature="0" />
        <path
           style="fill:none;stroke:#ffffff;stroke-width:4;stroke-linecap:butt;stroke-linejoin:miter;stroke-miterlimit:4;stroke-opacity:1;stroke-dasharray:none"
           d="m 1635.4744,2328.207 -9.0001,-30.1006"
           id="path3505"
           inkscape:connector-curvature="0" />
        <path
           style="fill:none;stroke:#ffffff;stroke-width:4;stroke-linecap:butt;stroke-linejoin:miter;stroke-miterlimit:4;stroke-opacity:1;stroke-dasharray:none"
           d="m 1589.4972,2272.2631 3.2093,-15.2902"
           id="path3507"
           inkscape:connector-curvature="0" />
        <path
           style="fill:none;stroke:#ffffff;stroke-width:4;stroke-linecap:butt;stroke-linejoin:miter;stroke-miterlimit:4;stroke-opacity:1;stroke-dasharray:none"
           d="m 1503.6825,2351.2305 -14.1629,-2.6983"
           id="path3509"
           inkscape:connector-curvature="0" />
        <path
           style="fill:none;stroke:#ffffff;stroke-width:2;stroke-linecap:butt;stroke-linejoin:miter;stroke-miterlimit:4;stroke-opacity:1;stroke-dasharray:none"
           d="m 1526.985,2385.4084 46.7446,-11.4526"
           id="path3511"
           inkscape:connector-curvature="0" />
        <path
           style="fill:none;stroke:#ffffff;stroke-width:2;stroke-linecap:butt;stroke-linejoin:miter;stroke-miterlimit:4;stroke-opacity:1;stroke-dasharray:none"
           d="m 1574.9157,2373.8958 33.6282,7.2554"
           id="path3513"
           inkscape:connector-curvature="0" />
        <path
           style="fill:none;stroke:#ffffff;stroke-width:2;stroke-linecap:butt;stroke-linejoin:miter;stroke-miterlimit:4;stroke-opacity:1;stroke-dasharray:none"
           d="m 1492.5121,2295.941 61.203,-6.8478"
           id="path3515"
           inkscape:connector-curvature="0" />
        <path
           style="fill:none;stroke:#ffffff;stroke-width:2;stroke-linecap:butt;stroke-linejoin:miter;stroke-miterlimit:4;stroke-opacity:1;stroke-dasharray:none"
           d="m 1553.7151,2287.7387 36.4241,-13.5452"
           id="path3517"
           inkscape:connector-curvature="0" />
        <path
           sodipodi:type="arc"
           style="opacity:0.98999999;fill:#ffffff;fill-opacity:1;stroke:none"
           id="path3519"
           sodipodi:cx="1324.929"
           sodipodi:cy="1792.4095"
           sodipodi:rx="7.3256478"
           sodipodi:ry="7.3256478"
           d="m 1332.2546,1792.4095 c 0,4.0459 -3.2798,7.3257 -7.3256,7.3257 -4.0459,0 -7.3257,-3.2798 -7.3257,-7.3257 0,-4.0458 3.2798,-7.3256 7.3257,-7.3256 4.0458,0 7.3256,3.2798 7.3256,7.3256 z"
           transform="matrix(0.6234843,0,0,0.6234843,726.86911,1170.9368)" />
        <path
           transform="matrix(0.5833906,0,0,0.5833906,837.2333,1298.2147)"
           d="m 1332.2546,1792.4095 c 0,4.0459 -3.2798,7.3257 -7.3256,7.3257 -4.0459,0 -7.3257,-3.2798 -7.3257,-7.3257 0,-4.0458 3.2798,-7.3256 7.3257,-7.3256 4.0458,0 7.3256,3.2798 7.3256,7.3256 z"
           sodipodi:ry="7.3256478"
           sodipodi:rx="7.3256478"
           sodipodi:cy="1792.4095"
           sodipodi:cx="1324.929"
           id="path3521"
           style="opacity:0.98999999;fill:#ffffff;fill-opacity:1;stroke:none"
           sodipodi:type="arc" />
        <path
           style="fill:none;stroke:#ffffff;stroke-width:2;stroke-linecap:butt;stroke-linejoin:miter;stroke-miterlimit:4;stroke-opacity:1;stroke-dasharray:none"
           d="m 1609.6576,2343.739 16.404,-46.0639"
           id="path3523"
           inkscape:connector-curvature="0" />
        <path
           style="fill:none;stroke:#ffffff;stroke-width:2;stroke-linecap:butt;stroke-linejoin:miter;stroke-miterlimit:4;stroke-opacity:1;stroke-dasharray:none"
           d="m 1609.4298,2381.481 0.5696,-38.77"
           id="path3525"
           inkscape:connector-curvature="0" />
        <path
           id="path3527"
           d="m 1502.1919,2350.0723 23.4339,-35.9573"
           style="fill:none;stroke:#ffffff;stroke-width:2;stroke-linecap:butt;stroke-linejoin:miter;stroke-miterlimit:4;stroke-opacity:1;stroke-dasharray:none"
           inkscape:connector-curvature="0" />
        <path
           id="path3529"
           d="M 1537.8572,2255.3651 1524.94,2314.115"
           style="fill:none;stroke:#ffffff;stroke-width:2;stroke-linecap:butt;stroke-linejoin:miter;stroke-miterlimit:4;stroke-opacity:1;stroke-dasharray:none"
           inkscape:connector-curvature="0" />
      </g>
      <path
         style="fill:#ffffff;fill-opacity:1"
         d="m 421.03206,347.17918 c -2.897,-0.6616 -3.1026,-0.8718 -3.1026,-3.1714 0,-3.2905 1.0982,-3.5622 11.8013,-2.919 12.6637,0.7607 36.1473,-0.2442 37.5083,-1.6052 0.893,-0.8929 1.0513,-5.371 0.998,-28.2024 -0.035,-14.9276 -0.2854,-30.0476 -0.5563,-33.6002 -0.7121,-9.3344 -0.5346,-9.2361 -16.6645,-9.2361 -12.8444,0 -14.8949,0.3482 -16.8206,2.8568 -0.489,0.637 -3.5734,6.1972 -6.854,12.3557 l -5.965,11.1975 3.0465,5.9579 c 4.8262,9.4382 8.1218,13.9027 10.6617,14.4439 1.2046,0.2565 7.6995,0.5053 14.4335,0.5529 12.2289,0.0862 12.2444,0.0885 13.0537,1.8649 1.7845,3.9163 1.2499,4.0615 -14.9555,4.0615 -17.4767,0 -16.6768,0.3118 -22.0541,-8.5968 -4.5721,-7.5744 -6.7588,-10.3836 -8.0829,-10.3836 -0.6978,0 -2.6783,3.3275 -5.3691,9.0207 -2.3449,4.9613 -4.7617,9.2119 -5.3705,9.4456 -0.9046,0.347 -28.1547,0.7432 -38.634,0.5616 -1.7148,-0.0297 -3.2831,-0.5928 -4.1975,-1.5075 -1.4076,-1.4076 -1.4601,-2.4335 -1.4601,-28.5186 0,-17.2561 0.2737,-27.5701 0.7556,-28.4706 0.7134,-1.3328 1.6917,-1.4121 17.4291,-1.4121 9.1705,0 17.7311,0.2117 19.024,0.4702 2.9335,0.5867 5.4281,3.9132 12.075,16.1018 2.693,4.9383 5.3388,8.9786 5.8796,8.9786 0.5409,0 2.3521,-2.3816 4.025,-5.2926 5.4364,-9.4597 9.6874,-16.1394 11.7123,-18.4043 l 1.9837,-2.2187 17.695,0.2447 c 9.7321,0.1345 18.4474,0.5309 19.3671,0.8806 3.1256,1.1881 3.325,4.1021 3.0749,44.9166 -0.1844,30.1072 -0.4348,38.4041 -1.182,39.1515 -1.1755,1.1757 -48.3458,1.5973 -53.2556,0.4761 z m -17.1329,-32.9618 c 1.4744,-1.3361 10.3803,-17.9513 10.3803,-19.3663 0,-1.1994 -12.1382,-22.9192 -13.813,-24.7166 -1.9689,-2.113 -6.0979,-2.6621 -17.2318,-2.2915 -10.2726,0.3421 -12.543,1.2841 -13.6813,5.6768 -0.3434,1.3257 -0.5222,10.7118 -0.3973,20.8579 0.2109,17.1003 0.3316,18.5627 1.654,20.0228 1.3871,1.5313 1.8454,1.5687 16.533,1.3526 13.328,-0.1959 15.2771,-0.3769 16.5561,-1.5357 z m -84.6686,7.5716 c -18.4945,-0.2885 -27.0487,-0.6746 -27.6199,-1.2463 -0.455,-0.4555 -0.7175,-1.6054 -0.5831,-2.555 l 0.2443,-1.7268 26.9894,-0.365 26.9894,-0.365 0.9594,-1.8251 c 0.6376,-1.2126 0.8897,-3.988 0.7511,-8.2719 -0.1741,-5.3923 -0.4399,-6.6164 -1.6251,-7.4827 -1.1144,-0.8144 -4.624,-1.0365 -16.4254,-1.0398 -16.3989,-0.004 -20.0715,-0.5547 -20.7564,-3.1102 -0.2404,-0.8969 -0.4417,-7.8918 -0.4471,-15.5441 -0.008,-10.876 0.2163,-14.2225 1.0262,-15.3303 0.9713,-1.3283 2.1106,-1.4229 18.1909,-1.5094 9.4349,-0.0507 19.0703,0.1134 21.4117,0.365 l 4.2571,0.4573 0.2267,2.7376 0.2265,2.7376 -5.3367,0.091 c -2.9352,0.05 -10.4409,0.1322 -16.6794,0.1826 -9.4602,0.0762 -11.6669,0.3031 -13.2942,1.3669 -2.5821,1.688 -3.6758,5.9611 -3.3519,13.0943 0.3898,8.5836 -0.5445,8.1905 20.4995,8.6257 l 17.6464,0.365 0.5064,1.8249 c 0.766,2.7614 0.7505,27.5935 -0.0177,28.0683 -1.281,0.7917 -7.1562,0.8709 -33.7881,0.4554 z m 166.7528,-1.1894 -1.6224,-1.1365 0,-27.5596 c 0,-22.6456 0.1846,-27.8122 1.0358,-28.9767 0.9582,-1.3108 2.2032,-1.4366 16.6078,-1.6778 8.5646,-0.1435 20.5889,-0.0264 26.7206,0.26 10.3511,0.4837 11.2126,0.633 12.0415,2.0858 1.1385,1.9953 1.659,30.249 0.5871,31.8607 -0.6173,0.928 -3.7115,1.095 -20.283,1.095 -10.755,0 -20.7865,-0.2613 -22.2921,-0.5806 -2.3866,-0.5062 -2.7374,-0.8471 -2.7374,-2.6595 0,-1.2222 0.4758,-2.2614 1.1546,-2.522 0.6351,-0.2436 8.7657,-0.448 18.0679,-0.4543 9.3022,-0.006 17.3707,-0.3008 17.93,-0.6549 2.3645,-1.4973 2.5497,-18.7565 0.2221,-20.6875 -0.8179,-0.6783 -6.0393,-0.9118 -20.3967,-0.9118 l -19.2975,0 -1.3954,1.7234 c -1.3016,1.6077 -1.3952,3.1368 -1.3952,22.7716 0,20.923 0.01,21.0549 1.6224,22.1845 1.4077,0.9861 5.8015,1.1365 33.2019,1.1365 l 31.5793,0 0.4576,1.8235 c 1.0552,4.2036 2.6978,4.0166 -35.2852,4.0166 -30.4068,0 -35.1102,-0.1463 -36.5237,-1.1364 z"
         id="path3581"
         inkscape:connector-curvature="0" />
      <path
         id="path3583"
         d="m 284.60496,253.34928 c 0,132.01 0,130.863 0,130.863"
         style="fill:none;stroke:#ffffff;stroke-width:2.70117497;stroke-linecap:butt;stroke-linejoin:miter;stroke-miterlimit:4;stroke-opacity:1;stroke-dasharray:none"
         inkscape:connector-curvature="0" />
      <text
         xml:space="preserve"
         style="font-size:43.98580551px;font-style:normal;font-weight:normal;line-height:125%;letter-spacing:0px;word-spacing:0px;fill:#000000;fill-opacity:1;stroke:none;font-family:Sans"
         x="262.71353"
         y="381.96411"
         id="text3222"
         sodipodi:linespacing="125%"
         transform="scale(1.0996451,0.9093843)"><tspan
           sodipodi:role="line"
           id="tspan3224"
           x="262.71353"
           y="381.96411"
           style="font-style:normal;font-variant:normal;font-weight:normal;font-stretch:normal;fill:#ffffff;font-family:GFS Neohellenic;-inkscape-font-specification:GFS Neohellenic">physics</tspan></text>
      <text
         xml:space="preserve"
         style="font-size:11.68831158px;font-style:normal;font-weight:normal;fill:#000000;fill-opacity:1;stroke:none;font-family:Lello"
         x="-1536.3502"
         y="-961.05737"
         id="text2171"><tspan
           sodipodi:role="line"
           id="tspan2173"
           x="-1536.3502"
           y="-961.05737" /></text>
      <path
         inkscape:connector-curvature="0"
         style="font-size:2050.27807617px;font-style:normal;font-weight:normal;fill:#ffffff;fill-opacity:1;stroke:none;font-family:Times New Roman"
         d="m 143.96919,287.05144 c 3.03388,2e-5 5.33719,-0.51307 6.90996,-1.53926 1.57268,-1.02615 2.62117,-2.27541 3.14545,-3.74778 0.5242,-1.47231 0.8644,-3.92621 1.0206,-7.3617 0.15611,-3.81466 1.0094,-6.65337 2.55986,-8.51615 1.55038,-1.86269 4.09909,-2.79405 7.64613,-2.7941 l 0,1.27156 c -1.27161,0.0893 -2.13606,0.58564 -2.59332,1.48908 -0.45737,0.90352 -0.68603,2.81644 -0.68598,5.73878 0,4.2832 -0.45179,7.59038 -1.35522,9.92156 -0.90353,2.33123 -2.71607,4.22185 -5.43762,5.67186 -2.72164,1.45005 -6.45825,2.23084 -11.20986,2.34236 l 0,10.60754 c -4e-5,2.61006 0.15055,4.2999 0.45174,5.06953 0.30113,0.76964 0.93691,1.38869 1.90735,1.85716 0.97037,0.46847 2.4706,0.70271 4.50067,0.70271 l 0,1.2381 -20.14429,0 0,-1.2381 c 1.98541,-0.0223 3.46333,-0.23981 4.43375,-0.65252 0.97039,-0.4127 1.61733,-1.01502 1.94082,-1.80696 0.32344,-0.79194 0.48517,-2.51524 0.4852,-5.16992 l 0,-10.60754 c -4.79628,-0.11152 -8.52174,-0.88116 -11.1764,-2.3089 -2.65468,-1.4277 -4.45607,-3.29601 -5.40416,-5.60493 -0.9481,-2.30887 -1.42215,-5.66067 -1.42214,-10.05542 -1e-5,-2.81079 -0.21194,-4.67909 -0.63579,-5.60492 -0.42386,-0.92575 -1.30503,-1.45557 -2.64352,-1.58947 l 0,-1.27156 c 2.25313,0.0447 4.07124,0.40159 5.45435,1.07079 1.38311,0.66929 2.49294,1.85163 3.3295,3.547 0.83655,1.69547 1.3106,3.92628 1.42214,6.69246 0.15615,3.41318 0.4852,5.85593 0.98715,7.32824 0.50192,1.47236 1.55597,2.7272 3.16217,3.7645 1.60618,1.03736 3.91507,1.55602 6.9267,1.556 l 0,-14.58955 c -3e-5,-2.61002 -0.1506,-4.29987 -0.45174,-5.06954 -0.30118,-0.76959 -0.93139,-1.37748 -1.89062,-1.82369 -0.95927,-0.44612 -2.46507,-0.68036 -4.51741,-0.70271 l 0,-1.2381 20.14429,0 0,1.2381 c -2.05239,0.0224 -3.55819,0.25101 -4.5174,0.68598 -0.95929,0.43505 -1.58949,1.04294 -1.89062,1.82369 -0.30119,0.78083 -0.45178,2.47625 -0.45174,5.08627 z"
         id="text2175"
         sodipodi:nodetypes="csccscccccsccccccccccscccscccccccccscccccccccc" />
    </g>
    <svg
       inkscape:version="0.48.3.1 r9886"
       version="1.1"
       baseProfile="full"
       id="body"
       width="8in"
       height="8in"
       viewBox="0 0 1 1"
       preserveAspectRatio="none" />
    <svg
       inkscape:version="0.48.3.1 r9886"
       version="1.1"
       baseProfile="full"
       id="svg118829"
       width="8in"
       height="8in"
       viewBox="0 0 1 1"
       preserveAspectRatio="none" />
  </g>
</svg>
